# xmcd
#
# Track frame offsets: 
#        150
#        18675
#        30525
#        47175
#        61875
#        78299
#        100650
#        115200
#        131625
#        148050
#        165825
#        181275
#        203100
#
# Disc length: 2988 seconds
#
# Revision: 0
# Processed by: cddbd v1.5.2PL0 Copyright (c) Steve Scherf et al.
# Submitted via: ExactAudioCopyFreeDBPlugin 1.0
#
DISCID=a90baa0d
DTITLE=Brandon Isaak - Rise 'N' Shine
DYEAR=2018
DGENRE=blues
TTITLE0=Right Around The Corner
TTITLE1=Lose The Blues
TTITLE2=I Wanna Be Your Man
TTITLE3=Can't Do No Wrong
TTITLE4=Beautiful Day
TTITLE5=PhD In The Blues
TTITLE6=That's How I Feel
TTITLE7=Me And The Blues
TTITLE8=Time To Git It On
TTITLE9=Blame It On The Girl
TTITLE10=No Matter What Thy Name
TTITLE11=Perfectly Happy With The Blues
TTITLE12=Sweet Dana Lee
EXTD=
EXTT0=
EXTT1=
EXTT2=
EXTT3=
EXTT4=
EXTT5=
EXTT6=
EXTT7=
EXTT8=
EXTT9=
EXTT10=
EXTT11=
EXTT12=
PLAYORDER=
